<svg xmlns="http://www.w3.org/2000/svg" enable-background="new 0 0 60 60" viewBox="0 0 60 60"><path d="M19.6442413 11.9022827c-1.7402344.659668-3.3178711 1.6845703-4.6933594 3.0493164-3.1977539 3.2080078-4.5708008 7.7851563-3.6728516 12.2431641.0957031.4750977.5131836.8027344.9794922.8027344.0654297 0 .1318359-.0063477.1982422-.0195313.5415039-.109375.8920898-.6367188.7832031-1.1777344-.7661133-3.8017578.4033203-7.703125 3.1245117-10.4326172 1.1713867-1.1625977 2.5136719-2.0356445 3.9897461-2.5952148.5166016-.1958008.7763672-.7729492.5805664-1.2895508C20.7384796 11.9662476 20.1603546 11.7064819 19.6442413 11.9022827zM24.3786163 11.0072632c-.1132813 0-.2446289.0053711-.3583984.0244141-.5444336.0932617-.9282227.6118164-.8354492 1.15625.0834961.487793.4926758.8344727.9682617.8344727.0551758 0 .1113281-.0048828.1679688-.0146484l.0576172-.0004883c.5522461 0 1-.4477539 1-1S24.9308624 11.0072632 24.3786163 11.0072632z"/><path d="M40.8887482 33.1474609c1.3900146-2.6300049 2.1400146-5.5700073 2.1400146-8.6399536 0-4.9400024-1.9300537-9.5900269-5.4200439-13.0900269-7.2199707-7.2199707-18.9699707-7.2199707-26.1900024 0-7.2199707 7.2200317-7.2199707 18.9700317 0 26.1900024 3.6100464 3.6099854 8.3500366 5.4099731 13.0900269 5.4099731 2.9799805 0 5.9500122-.7099609 8.6499634-2.1299438L41.4587555 49.1875l7.7299805-7.7399902L40.8887482 33.1474609zM12.8387604 36.1875c-6.4400024-6.4400024-6.4400024-16.9100342 0-23.3500366 3.2199707-3.2199707 7.4400024-4.8299561 11.6699829-4.8299561s8.4599609 1.6099854 11.6799927 4.8299561c3.1199951 3.1100464 4.8400269 7.2600098 4.8400269 11.6700439 0 4.4199829-1.7200317 8.5699463-4.8400269 11.6799927C29.7487335 42.6275024 19.2787628 42.6275024 12.8387604 36.1875zM52.3987579 44.6574707l-1.8000488-1.7999878-7.7299805 7.7399902 1.7999878 1.7999878c1.0599976 1.0599976 2.460022 1.6000366 3.8600464 1.6000366 1.3999634 0 2.7999878-.5400391 3.8699951-1.6000366C54.5287628 50.2674561 54.5287628 46.7874756 52.3987579 44.6574707z"/></svg>